<svg xmlns="http://www.w3.org/2000/svg" viewBox="0 0 600 120">
  <defs>
    <linearGradient id="grad" x1="0%" y1="0%" x2="100%" y2="0%">
      <stop offset="0%" style="stop-color:#6D28D9;stop-opacity:1" />
      <stop offset="100%" style="stop-color:#0891B2;stop-opacity:1" />
    </linearGradient>
  </defs>
  <path d="M234.84 50.26L225.57 50.26L225.57 43.51L243.01 43.51L243.01 59.48Q240.47 61.94 235.64 63.81Q230.82 65.68 225.87 65.68L225.87 65.68Q219.58 65.68 214.90 63.04Q210.23 60.41 207.88 55.50Q205.52 50.59 205.52 44.82L205.52 44.82Q205.52 38.56 208.15 33.69Q210.77 28.82 215.83 26.23L215.83 26.23Q219.69 24.23 225.43 24.23L225.43 24.23Q232.89 24.23 237.09 27.36Q241.29 30.49 242.49 36.02L242.49 36.02L234.45 37.52Q233.61 34.57 231.27 32.86Q228.93 31.15 225.43 31.15L225.43 31.15Q220.13 31.15 216.99 34.51Q213.86 37.88 213.86 44.49L213.86 44.49Q213.86 51.63 217.04 55.20Q220.21 58.77 225.35 58.77L225.35 58.77Q227.89 58.77 230.45 57.77Q233.00 56.77 234.84 55.35L234.84 55.35L234.84 50.26Z M265.24 55.76L265.24 55.76L272.89 57.04Q271.42 61.25 268.23 63.46Q265.05 65.66 260.26 65.66L260.26 65.66Q252.69 65.66 249.05 60.71L249.05 60.71Q246.18 56.74 246.18 50.70L246.18 50.70Q246.18 43.48 249.95 39.39Q253.73 35.30 259.50 35.30L259.50 35.30Q265.98 35.30 269.72 39.58Q273.47 43.86 273.30 52.70L273.30 52.70L254.05 52.70Q254.14 56.11 255.91 58.01Q257.69 59.91 260.34 59.91L260.34 59.91Q262.15 59.91 263.38 58.93Q264.61 57.95 265.24 55.76ZM254.19 47.99L265.68 47.99Q265.59 44.66 263.95 42.92Q262.31 41.18 259.96 41.18L259.96 41.18Q257.45 41.18 255.80 43.02L255.80 43.02Q254.16 44.85 254.19 47.99L254.19 47.99Z M275.79 50.07L275.79 50.07Q275.79 46.24 277.68 42.66Q279.56 39.08 283.02 37.19Q286.48 35.30 290.75 35.30L290.75 35.30Q297.34 35.30 301.55 39.58Q305.76 43.86 305.76 50.40L305.76 50.40Q305.76 56.99 301.51 61.32Q297.25 65.66 290.80 65.66L290.80 65.66Q286.81 65.66 283.19 63.85Q279.56 62.05 277.68 58.56Q275.79 55.07 275.79 50.07ZM283.66 50.48L283.66 50.48Q283.66 54.80 285.71 57.10Q287.77 59.39 290.77 59.39L290.77 59.39Q293.78 59.39 295.82 57.10Q297.86 54.80 297.86 50.43L297.86 50.43Q297.86 46.16 295.82 43.86Q293.78 41.57 290.77 41.57L290.77 41.57Q287.77 41.57 285.71 43.86Q283.66 46.16 283.66 50.48Z M326.95 65L318.85 65L318.85 31.70L306.96 31.70L306.96 24.91L338.81 24.91L338.81 31.70L326.95 31.70L326.95 65Z M343.57 44.82L343.57 44.82L336.59 43.56Q337.77 39.35 340.64 37.33Q343.51 35.30 349.17 35.30L349.17 35.30Q354.31 35.30 356.83 36.52Q359.34 37.74 360.37 39.61Q361.39 41.48 361.39 46.49L361.39 46.49L361.31 55.46Q361.31 59.29 361.68 61.10Q362.05 62.92 363.06 65L363.06 65L355.46 65Q355.16 64.23 354.72 62.73L354.72 62.73Q354.53 62.05 354.45 61.83L354.45 61.83Q352.48 63.74 350.24 64.70Q348.00 65.66 345.45 65.66L345.45 65.66Q340.97 65.66 338.38 63.22Q335.80 60.79 335.80 57.07L335.80 57.07Q335.80 54.61 336.98 52.68Q338.15 50.75 340.27 49.73Q342.39 48.70 346.38 47.94L346.38 47.94Q351.77 46.93 353.85 46.05L353.85 46.05L353.85 45.29Q353.85 43.07 352.75 42.13Q351.66 41.18 348.63 41.18L348.63 41.18Q346.57 41.18 345.43 41.99Q344.28 42.80 343.57 44.82ZM353.85 52.59L353.85 51.05Q352.37 51.55 349.17 52.23Q345.97 52.91 344.99 53.57L344.99 53.57Q343.48 54.64 343.48 56.28L343.48 56.28Q343.48 57.89 344.69 59.07Q345.89 60.24 347.75 60.24L347.75 60.24Q349.83 60.24 351.71 58.88L351.71 58.88Q353.11 57.84 353.55 56.33L353.55 56.33Q353.85 55.35 353.85 52.59L353.85 52.59Z M366.75 76.05L366.75 35.96L373.91 35.96L373.91 40.23Q375.31 38.04 377.69 36.67Q380.07 35.30 382.96 35.30L382.96 35.30Q388.02 35.30 391.55 39.27Q395.08 43.23 395.08 50.32L395.08 50.32Q395.08 57.59 391.52 61.62Q387.97 65.66 382.91 65.66L382.91 65.66Q380.50 65.66 378.55 64.70Q376.59 63.74 374.43 61.42L374.43 61.42L374.43 76.05L366.75 76.05ZM374.35 49.99L374.35 49.99Q374.35 54.88 376.29 57.22Q378.23 59.56 381.02 59.56L381.02 59.56Q383.70 59.56 385.48 57.41Q387.26 55.27 387.26 50.37L387.26 50.37Q387.26 45.80 385.43 43.59Q383.59 41.38 380.89 41.38L380.89 41.38Q378.07 41.38 376.21 43.55Q374.35 45.72 374.35 49.99Z" fill="url(#grad)"/>
  <path d="M62.67 95.51L59.30 95.51L59.30 94.16L64.15 94.16L64.15 98.41Q63.04 99.30 61.85 99.75Q60.66 100.20 59.41 100.20L59.41 100.20Q57.72 100.20 56.34 99.47Q54.96 98.75 54.26 97.38Q53.56 96.02 53.56 94.33L53.56 94.33Q53.56 92.66 54.26 91.21Q54.96 89.76 56.27 89.05Q57.58 88.35 59.29 88.35L59.29 88.35Q60.54 88.35 61.54 88.75Q62.54 89.16 63.11 89.88Q63.68 90.59 63.98 91.75L63.98 91.75L62.61 92.13Q62.36 91.25 61.97 90.75Q61.59 90.25 60.88 89.95Q60.17 89.65 59.30 89.65L59.30 89.65Q58.26 89.65 57.50 89.96Q56.75 90.28 56.28 90.80Q55.82 91.31 55.56 91.93L55.56 91.93Q55.12 92.99 55.12 94.23L55.12 94.23Q55.12 95.77 55.65 96.80Q56.18 97.83 57.18 98.33Q58.19 98.83 59.32 98.83L59.32 98.83Q60.31 98.83 61.25 98.45Q62.18 98.07 62.67 97.64L62.67 97.64L62.67 95.51Z M69.93 94.42L69.93 94.42Q69.93 91.57 71.46 89.96Q72.99 88.34 75.41 88.34L75.41 88.34Q77.00 88.34 78.27 89.10Q79.54 89.86 80.21 91.21Q80.88 92.57 80.88 94.29L80.88 94.29Q80.88 96.03 80.18 97.41Q79.47 98.78 78.18 99.49Q76.89 100.20 75.40 100.20L75.40 100.20Q73.79 100.20 72.51 99.41Q71.24 98.63 70.58 97.28Q69.93 95.93 69.93 94.42ZM71.49 94.45L71.49 94.45Q71.49 96.52 72.60 97.71Q73.71 98.90 75.39 98.90L75.39 98.90Q77.11 98.90 78.21 97.70Q79.32 96.49 79.32 94.28L79.32 94.28Q79.32 92.88 78.84 91.84Q78.37 90.80 77.46 90.22Q76.55 89.65 75.42 89.65L75.42 89.65Q73.81 89.65 72.65 90.75Q71.49 91.86 71.49 94.45Z M86.37 94.42L86.37 94.42Q86.37 91.57 87.90 89.96Q89.43 88.34 91.86 88.34L91.86 88.34Q93.44 88.34 94.71 89.10Q95.99 89.86 96.66 91.21Q97.32 92.57 97.32 94.29L97.32 94.29Q97.32 96.03 96.62 97.41Q95.92 98.78 94.63 99.49Q93.34 100.20 91.85 100.20L91.85 100.20Q90.23 100.20 88.96 99.41Q87.68 98.63 87.03 97.28Q86.37 95.93 86.37 94.42ZM87.93 94.45L87.93 94.45Q87.93 96.52 89.05 97.71Q90.16 98.90 91.84 98.90L91.84 98.90Q93.55 98.90 94.66 97.70Q95.76 96.49 95.76 94.28L95.76 94.28Q95.76 92.88 95.29 91.84Q94.82 90.80 93.91 90.22Q93.00 89.65 91.86 89.65L91.86 89.65Q90.25 89.65 89.09 90.75Q87.93 91.86 87.93 94.45Z M112.00 95.51L108.64 95.51L108.64 94.16L113.49 94.16L113.49 98.41Q112.37 99.30 111.18 99.75Q110.00 100.20 108.75 100.20L108.75 100.20Q107.06 100.20 105.68 99.47Q104.30 98.75 103.60 97.38Q102.89 96.02 102.89 94.33L102.89 94.33Q102.89 92.66 103.59 91.21Q104.29 89.76 105.61 89.05Q106.92 88.35 108.63 88.35L108.63 88.35Q109.87 88.35 110.88 88.75Q111.88 89.16 112.45 89.88Q113.02 90.59 113.32 91.75L113.32 91.75L111.95 92.13Q111.69 91.25 111.31 90.75Q110.93 90.25 110.21 89.95Q109.50 89.65 108.64 89.65L108.64 89.65Q107.60 89.65 106.84 89.96Q106.08 90.28 105.62 90.80Q105.15 91.31 104.89 91.93L104.89 91.93Q104.46 92.99 104.46 94.23L104.46 94.23Q104.46 95.77 104.98 96.80Q105.51 97.83 106.52 98.33Q107.53 98.83 108.66 98.83L108.66 98.83Q109.64 98.83 110.58 98.45Q111.52 98.07 112.00 97.64L112.00 97.64L112.00 95.51Z M126.82 100L119.66 100L119.66 88.55L121.18 88.55L121.18 98.65L126.82 98.65L126.82 100Z M141.20 100L132.65 100L132.65 88.55L140.93 88.55L140.93 89.90L134.17 89.90L134.17 93.41L140.50 93.41L140.50 94.75L134.17 94.75L134.17 98.65L141.20 98.65L141.20 100Z M157.15 100L155.69 100L155.69 88.55L157.97 88.55L160.68 96.66Q161.06 97.79 161.23 98.35L161.23 98.35Q161.43 97.73 161.84 96.52L161.84 96.52L164.58 88.55L166.62 88.55L166.62 100L165.16 100L165.16 90.41L161.83 100L160.46 100L157.15 90.25L157.15 100Z M173.42 100L171.81 100L176.21 88.55L177.84 88.55L182.53 100L180.80 100L179.46 96.53L174.68 96.53L173.42 100ZM176.37 91.94L175.11 95.30L179.00 95.30L177.80 92.13Q177.25 90.68 176.99 89.75L176.99 89.75Q176.77 90.85 176.37 91.94L176.37 91.94Z M189.25 100L187.74 100L187.74 88.55L192.06 88.55Q193.20 88.55 193.80 88.66L193.80 88.66Q194.64 88.80 195.21 89.19Q195.79 89.59 196.13 90.30Q196.48 91.01 196.48 91.86L196.48 91.86Q196.48 93.32 195.55 94.33Q194.62 95.34 192.19 95.34L192.19 95.34L189.25 95.34L189.25 100ZM189.25 89.90L189.25 93.99L192.21 93.99Q193.68 93.99 194.30 93.45Q194.92 92.90 194.92 91.91L194.92 91.91Q194.92 91.19 194.55 90.68Q194.19 90.16 193.60 90L193.60 90Q193.21 89.90 192.18 89.90L192.18 89.90L189.25 89.90Z M201.89 96.32L201.89 96.32L203.32 96.20Q203.43 97.05 203.80 97.61Q204.17 98.16 204.95 98.50Q205.73 98.84 206.71 98.84L206.71 98.84Q207.57 98.84 208.24 98.58Q208.90 98.32 209.23 97.87Q209.55 97.42 209.55 96.89L209.55 96.89Q209.55 96.35 209.24 95.95Q208.93 95.55 208.21 95.27L208.21 95.27Q207.75 95.09 206.17 94.71Q204.59 94.34 203.96 94L203.96 94Q203.14 93.57 202.73 92.93Q202.33 92.30 202.33 91.51L202.33 91.51Q202.33 90.64 202.82 89.89Q203.32 89.13 204.26 88.74Q205.21 88.35 206.36 88.35L206.36 88.35Q207.64 88.35 208.61 88.76Q209.58 89.17 210.11 89.97Q210.63 90.77 210.67 91.77L210.67 91.77L209.21 91.88Q209.10 90.80 208.42 90.24Q207.75 89.69 206.43 89.69L206.43 89.69Q205.05 89.69 204.42 90.19Q203.79 90.70 203.79 91.41L203.79 91.41Q203.79 92.02 204.24 92.42L204.24 92.42Q204.68 92.82 206.52 93.24Q208.37 93.66 209.06 93.97L209.06 93.97Q210.06 94.43 210.54 95.14Q211.01 95.84 211.01 96.77L211.01 96.77Q211.01 97.68 210.49 98.49Q209.96 99.30 208.98 99.75Q208.00 100.20 206.78 100.20L206.78 100.20Q205.22 100.20 204.17 99.74Q203.12 99.29 202.52 98.38Q201.93 97.47 201.89 96.32Z M234.25 95.51L230.89 95.51L230.89 94.16L235.74 94.16L235.74 98.41Q234.62 99.30 233.43 99.75Q232.25 100.20 231.00 100.20L231.00 100.20Q229.31 100.20 227.93 99.47Q226.55 98.75 225.85 97.38Q225.14 96.02 225.14 94.33L225.14 94.33Q225.14 92.66 225.84 91.21Q226.54 89.76 227.86 89.05Q229.17 88.35 230.88 88.35L230.88 88.35Q232.12 88.35 233.13 88.75Q234.13 89.16 234.70 89.88Q235.27 90.59 235.57 91.75L235.57 91.75L234.20 92.13Q233.94 91.25 233.56 90.75Q233.18 90.25 232.46 89.95Q231.75 89.65 230.89 89.65L230.89 89.65Q229.85 89.65 229.09 89.96Q228.33 90.28 227.87 90.80Q227.40 91.31 227.14 91.93L227.14 91.93Q226.71 92.99 226.71 94.23L226.71 94.23Q226.71 95.77 227.23 96.80Q227.76 97.83 228.77 98.33Q229.78 98.83 230.91 98.83L230.91 98.83Q231.89 98.83 232.83 98.45Q233.77 98.07 234.25 97.64L234.25 97.64L234.25 95.51Z M250.55 100L242.00 100L242.00 88.55L250.29 88.55L250.29 89.90L243.52 89.90L243.52 93.41L249.86 93.41L249.86 94.75L243.52 94.75L243.52 98.65L250.55 98.65L250.55 100Z M256.18 94.42L256.18 94.42Q256.18 91.57 257.71 89.96Q259.25 88.34 261.67 88.34L261.67 88.34Q263.25 88.34 264.53 89.10Q265.80 89.86 266.47 91.21Q267.14 92.57 267.14 94.29L267.14 94.29Q267.14 96.03 266.43 97.41Q265.73 98.78 264.44 99.49Q263.15 100.20 261.66 100.20L261.66 100.20Q260.04 100.20 258.77 99.41Q257.50 98.63 256.84 97.28Q256.18 95.93 256.18 94.42ZM257.75 94.45L257.75 94.45Q257.75 96.52 258.86 97.71Q259.97 98.90 261.65 98.90L261.65 98.90Q263.36 98.90 264.47 97.70Q265.57 96.49 265.57 94.28L265.57 94.28Q265.57 92.88 265.10 91.84Q264.63 90.80 263.72 90.22Q262.81 89.65 261.68 89.65L261.68 89.65Q260.07 89.65 258.91 90.75Q257.75 91.86 257.75 94.45Z M281.82 95.51L278.45 95.51L278.45 94.16L283.30 94.16L283.30 98.41Q282.18 99.30 281.00 99.75Q279.81 100.20 278.56 100.20L278.56 100.20Q276.87 100.20 275.49 99.47Q274.11 98.75 273.41 97.38Q272.71 96.02 272.71 94.33L272.71 94.33Q272.71 92.66 273.41 91.21Q274.11 89.76 275.42 89.05Q276.73 88.35 278.44 88.35L278.44 88.35Q279.68 88.35 280.69 88.75Q281.69 89.16 282.26 89.88Q282.83 90.59 283.13 91.75L283.13 91.75L281.76 92.13Q281.50 91.25 281.12 90.75Q280.74 90.25 280.03 89.95Q279.32 89.65 278.45 89.65L278.45 89.65Q277.41 89.65 276.65 89.96Q275.89 90.28 275.43 90.80Q274.96 91.31 274.71 91.93L274.71 91.93Q274.27 92.99 274.27 94.23L274.27 94.23Q274.27 95.77 274.80 96.80Q275.32 97.83 276.33 98.33Q277.34 98.83 278.47 98.83L278.47 98.83Q279.46 98.83 280.39 98.45Q281.33 98.07 281.82 97.64L281.82 97.64L281.82 95.51Z M291.07 100L289.56 100L289.56 88.55L294.64 88.55Q296.17 88.55 296.96 88.86Q297.76 89.16 298.24 89.95Q298.71 90.73 298.71 91.67L298.71 91.67Q298.71 92.89 297.93 93.73Q297.14 94.56 295.49 94.79L295.49 94.79Q296.09 95.08 296.40 95.36L296.40 95.36Q297.07 95.97 297.66 96.88L297.66 96.88L299.65 100L297.75 100L296.23 97.62Q295.57 96.59 295.14 96.04Q294.71 95.49 294.37 95.27Q294.03 95.05 293.68 94.97L293.68 94.97Q293.42 94.91 292.83 94.91L292.83 94.91L291.07 94.91L291.07 100ZM291.07 89.81L291.07 93.60L294.33 93.60Q295.37 93.60 295.96 93.39Q296.54 93.17 296.85 92.70Q297.15 92.23 297.15 91.67L297.15 91.67Q297.15 90.86 296.56 90.34Q295.97 89.81 294.70 89.81L294.70 89.81L291.07 89.81Z M305.44 100L303.83 100L308.23 88.55L309.86 88.55L314.55 100L312.82 100L311.49 96.53L306.70 96.53L305.44 100ZM308.39 91.94L307.14 95.30L311.02 95.30L309.82 92.13Q309.28 90.68 309.01 89.75L309.01 89.75Q308.79 90.85 308.39 91.94L308.39 91.94Z M321.28 100L319.76 100L319.76 88.55L324.08 88.55Q325.22 88.55 325.82 88.66L325.82 88.66Q326.67 88.80 327.24 89.19Q327.81 89.59 328.16 90.30Q328.50 91.01 328.50 91.86L328.50 91.86Q328.50 93.32 327.57 94.33Q326.64 95.34 324.21 95.34L324.21 95.34L321.28 95.34L321.28 100ZM321.28 89.90L321.28 93.99L324.24 93.99Q325.71 93.99 326.32 93.45Q326.94 92.90 326.94 91.91L326.94 91.91Q326.94 91.19 326.58 90.68Q326.21 90.16 325.62 90L325.62 90Q325.24 89.90 324.21 89.90L324.21 89.90L321.28 89.90Z M336.00 100L334.48 100L334.48 88.55L336.00 88.55L336.00 93.25L341.95 93.25L341.95 88.55L343.46 88.55L343.46 100L341.95 100L341.95 94.60L336.00 94.60L336.00 100Z M351.76 100L350.25 100L350.25 88.55L351.76 88.55L351.76 100Z M366.61 95.98L366.61 95.98L368.12 96.37Q367.64 98.23 366.41 99.21Q365.17 100.20 363.38 100.20L363.38 100.20Q361.53 100.20 360.37 99.44Q359.21 98.69 358.60 97.26Q358.00 95.83 358.00 94.19L358.00 94.19Q358.00 92.40 358.68 91.07Q359.36 89.73 360.63 89.04Q361.89 88.35 363.40 88.35L363.40 88.35Q365.12 88.35 366.29 89.23Q367.46 90.10 367.93 91.69L367.93 91.69L366.43 92.04Q366.04 90.79 365.28 90.22Q364.52 89.65 363.37 89.65L363.37 89.65Q362.05 89.65 361.16 90.28Q360.28 90.91 359.92 91.98Q359.56 93.05 359.56 94.18L359.56 94.18Q359.56 95.64 359.98 96.73Q360.41 97.82 361.31 98.36Q362.21 98.90 363.25 98.90L363.25 98.90Q364.53 98.90 365.41 98.16Q366.29 97.43 366.61 95.98Z M386.57 100L382.43 100L382.43 88.55L386.38 88.55Q387.71 88.55 388.42 88.71L388.42 88.71Q389.40 88.94 390.10 89.53L390.10 89.53Q391.00 90.30 391.45 91.49Q391.90 92.68 391.90 94.21L391.90 94.21Q391.90 95.52 391.60 96.52Q391.29 97.53 390.82 98.19Q390.34 98.85 389.77 99.23Q389.21 99.61 388.41 99.80Q387.61 100 386.57 100L386.57 100ZM383.95 89.90L383.95 98.65L386.39 98.65Q387.53 98.65 388.17 98.44Q388.82 98.23 389.20 97.84L389.20 97.84Q389.74 97.30 390.04 96.39Q390.34 95.48 390.34 94.19L390.34 94.19Q390.34 92.39 389.75 91.43Q389.16 90.46 388.32 90.13L388.32 90.13Q387.71 89.90 386.36 89.90L386.36 89.90L383.95 89.90Z M398.34 100L396.73 100L401.13 88.55L402.76 88.55L407.45 100L405.72 100L404.39 96.53L399.60 96.53L398.34 100ZM401.29 91.94L400.04 95.30L403.92 95.30L402.72 92.13Q402.18 90.68 401.91 89.75L401.91 89.75Q401.69 90.85 401.29 91.94L401.29 91.94Z M415.90 100L414.39 100L414.39 89.90L410.61 89.90L410.61 88.55L419.69 88.55L419.69 89.90L415.90 89.90L415.90 100Z M424.41 100L422.80 100L427.20 88.55L428.83 88.55L433.52 100L431.79 100L430.46 96.53L425.67 96.53L424.41 100ZM427.36 91.94L426.11 95.30L429.99 95.30L428.79 92.13Q428.25 90.68 427.98 89.75L427.98 89.75Q427.76 90.85 427.36 91.94L427.36 91.94Z M445.78 96.32L445.78 96.32L447.21 96.20Q447.31 97.05 447.68 97.61Q448.05 98.16 448.83 98.50Q449.61 98.84 450.59 98.84L450.59 98.84Q451.46 98.84 452.12 98.58Q452.79 98.32 453.11 97.87Q453.43 97.42 453.43 96.89L453.43 96.89Q453.43 96.35 453.12 95.95Q452.81 95.55 452.09 95.27L452.09 95.27Q451.63 95.09 450.05 94.71Q448.47 94.34 447.84 94L447.84 94Q447.02 93.57 446.62 92.93Q446.21 92.30 446.21 91.51L446.21 91.51Q446.21 90.64 446.71 89.89Q447.20 89.13 448.14 88.74Q449.09 88.35 450.25 88.35L450.25 88.35Q451.52 88.35 452.49 88.76Q453.46 89.17 453.99 89.97Q454.51 90.77 454.55 91.77L454.55 91.77L453.10 91.88Q452.98 90.80 452.30 90.24Q451.63 89.69 450.31 89.69L450.31 89.69Q448.93 89.69 448.30 90.19Q447.68 90.70 447.68 91.41L447.68 91.41Q447.68 92.02 448.12 92.42L448.12 92.42Q448.56 92.82 450.41 93.24Q452.25 93.66 452.94 93.97L452.94 93.97Q453.94 94.43 454.42 95.14Q454.89 95.84 454.89 96.77L454.89 96.77Q454.89 97.68 454.37 98.49Q453.85 99.30 452.87 99.75Q451.89 100.20 450.66 100.20L450.66 100.20Q449.11 100.20 448.05 99.74Q447.00 99.29 446.41 98.38Q445.81 97.47 445.78 96.32Z M469.14 95.98L469.14 95.98L470.65 96.37Q470.18 98.23 468.94 99.21Q467.70 100.20 465.91 100.20L465.91 100.20Q464.06 100.20 462.90 99.44Q461.74 98.69 461.13 97.26Q460.53 95.83 460.53 94.19L460.53 94.19Q460.53 92.40 461.21 91.07Q461.89 89.73 463.16 89.04Q464.42 88.35 465.93 88.35L465.93 88.35Q467.65 88.35 468.82 89.23Q470.00 90.10 470.46 91.69L470.46 91.69L468.96 92.04Q468.57 90.79 467.81 90.22Q467.05 89.65 465.90 89.65L465.90 89.65Q464.58 89.65 463.70 90.28Q462.81 90.91 462.45 91.98Q462.09 93.05 462.09 94.18L462.09 94.18Q462.09 95.64 462.52 96.73Q462.94 97.82 463.84 98.36Q464.74 98.90 465.79 98.90L465.79 98.90Q467.06 98.90 467.94 98.16Q468.82 97.43 469.14 95.98Z M476.87 100L475.26 100L479.66 88.55L481.29 88.55L485.98 100L484.25 100L482.92 96.53L478.13 96.53L476.87 100ZM479.82 91.94L478.57 95.30L482.45 95.30L481.25 92.13Q480.71 90.68 480.44 89.75L480.44 89.75Q480.22 90.85 479.82 91.94L479.82 91.94Z M492.63 100L491.18 100L491.18 88.55L492.73 88.55L498.75 97.54L498.75 88.55L500.20 88.55L500.20 100L498.64 100L492.63 91L492.63 100Z M508.18 100L506.73 100L506.73 88.55L508.29 88.55L514.30 97.54L514.30 88.55L515.75 88.55L515.75 100L514.20 100L508.18 91L508.18 100Z M530.88 100L522.33 100L522.33 88.55L530.61 88.55L530.61 89.90L523.85 89.90L523.85 93.41L530.18 93.41L530.18 94.75L523.85 94.75L523.85 98.65L530.88 98.65L530.88 100Z M538.51 100L537.00 100L537.00 88.55L542.07 88.55Q543.61 88.55 544.40 88.86Q545.20 89.16 545.68 89.95Q546.15 90.73 546.15 91.67L546.15 91.67Q546.15 92.89 545.36 93.73Q544.57 94.56 542.93 94.79L542.93 94.79Q543.53 95.08 543.84 95.36L543.84 95.36Q544.50 95.97 545.10 96.88L545.10 96.88L547.09 100L545.18 100L543.67 97.62Q543.00 96.59 542.57 96.04Q542.14 95.49 541.80 95.27Q541.46 95.05 541.11 94.97L541.11 94.97Q540.86 94.91 540.27 94.91L540.27 94.91L538.51 94.91L538.51 100ZM538.51 89.81L538.51 93.60L541.77 93.60Q542.81 93.60 543.39 93.39Q543.98 93.17 544.29 92.70Q544.59 92.23 544.59 91.67L544.59 91.67Q544.59 90.86 544 90.34Q543.41 89.81 542.14 89.81L542.14 89.81L538.51 89.81Z" fill="#6B7280"/>
</svg>
